<?xml version="1.0" encoding="UTF-8" standalone="no"?>
<svg
   stroke="currentColor"
   fill="currentColor"
   stroke-width="0"
   viewBox="0 0 16 16"
   height="200px"
   width="200px"
   version="1.1"
   id="svg4"
   sodipodi:docname="favicon.svg"
   inkscape:version="1.2 (dc2aedaf03, 2022-05-15)"
   xmlns:inkscape="http://www.inkscape.org/namespaces/inkscape"
   xmlns:sodipodi="http://sodipodi.sourceforge.net/DTD/sodipodi-0.dtd"
   xmlns="http://www.w3.org/2000/svg"
   xmlns:svg="http://www.w3.org/2000/svg">
  <defs
     id="defs8" />
  <sodipodi:namedview
     id="namedview6"
     pagecolor="#ffffff"
     bordercolor="#000000"
     borderopacity="0.25"
     inkscape:showpageshadow="2"
     inkscape:pageopacity="0.0"
     inkscape:pagecheckerboard="0"
     inkscape:deskcolor="#d1d1d1"
     showgrid="false"
     inkscape:zoom="4.185"
     inkscape:cx="91.397849"
     inkscape:cy="100.23895"
     inkscape:window-width="1920"
     inkscape:window-height="1018"
     inkscape:window-x="-6"
     inkscape:window-y="-6"
     inkscape:window-maximized="1"
     inkscape:current-layer="svg4" />
  <path
     fill-rule="evenodd"
     d="M6 0a2 2 0 0 0-2 2H2c.167.5.8 1.6 2 2v2H2c.167.5.8 1.6 2 2v2H2c.167.5.8 1.6 2 2v1a2 2 0 0 0 2 2h4a2 2 0 0 0 2-2v-1c1.2-.4 1.833-1.5 2-2h-2V8c1.2-.4 1.833-1.5 2-2h-2V4c1.2-.4 1.833-1.5 2-2h-2a2 2 0 0 0-2-2zm3.5 3.5a1.5 1.5 0 1 1-3 0 1.5 1.5 0 0 1 3 0m0 4a1.5 1.5 0 1 1-3 0 1.5 1.5 0 0 1 3 0M8 13a1.5 1.5 0 1 1 0-3 1.5 1.5 0 0 1 0 3"
     id="path2"
     style="fill:#ffffff;fill-opacity:1" />
</svg>
